<?xml version="1.0" encoding="utf-8"?>
<!-- Generator: Adobe Illustrator 24.3.0, SVG Export Plug-In . SVG Version: 6.00 Build 0)  -->
<svg version="1.1" id="Layer_1" xmlns="http://www.w3.org/2000/svg" xmlns:xlink="http://www.w3.org/1999/xlink" x="0px" y="0px"
	 viewBox="0 0 1080 1080" style="enable-background:new 0 0 1080 1080;" xml:space="preserve">
<style type="text/css">
	.st0{display:none;}
	.st1{display:inline;fill:#1B1B1B;}
	.st2{fill:#FFFFFF;}
	.st3{fill:url(#SVGID_1_);}
</style>
<g id="bg" class="st0">
	<rect x="0.1" y="0" class="st1" width="1079.8" height="1080"/>
</g>
<g id="logo">
	<g>
		<g>
			<path class="st2" d="M105,708.2V377.1h63.2v61.3l-10.6,56.5l10.1,57v156.4H105V708.2z M234.3,615.1c-16.7,0-31.9-3.4-45.4-10.1
				s-24.4-16.2-32.6-28.2S143.7,551.1,143,536v-83c0.6-15.4,5.1-29.2,13.3-41.3c8.2-12.1,19.1-21.6,32.6-28.7s28.6-10.6,45.4-10.6
				c21.6,0,40.9,5.3,58.2,15.9c17.2,10.6,30.7,25.1,40.3,43.4c9.7,18.3,14.5,39.1,14.5,62.3c0,22.9-4.9,43.4-14.7,61.8
				c-9.8,18.3-23.3,32.8-40.3,43.4C275.2,609.8,255.9,615.1,234.3,615.1z M223.7,556.7c11.6,0,21.7-2.7,30.4-8.2
				s15.5-12.9,20.5-22.4s7.5-20.3,7.5-32.6c0-12.2-2.5-23-7.5-32.3s-11.8-16.7-20.5-22.2c-8.7-5.5-19-8.2-30.9-8.2
				c-11.3,0-21.3,2.7-30.2,8.2s-15.8,12.9-20.8,22.2c-5,9.3-7.5,20.1-7.5,32.3c0,12.2,2.3,23.1,7,32.6s11.6,17,20.8,22.4
				C201.8,553.9,212.1,556.7,223.7,556.7z"/>
			<path class="st2" d="M452,614.6c-20.3,0-38.5-4.3-54.5-12.8c-16.1-8.5-28.6-20.5-37.7-36c-9-15.4-13.5-33.3-13.5-53.6V377.1H410
				v133.7c0,9.7,1.6,17.9,4.8,24.9c3.2,6.9,8,12.1,14.5,15.7c6.4,3.5,14,5.3,22.7,5.3c13.2,0,23.5-4,30.9-12.1
				c7.4-8,11.1-19.3,11.1-33.8V377.1h63.2v135.2c0,20.3-4.5,38.1-13.5,53.6c-9,15.4-21.5,27.4-37.4,36
				C490.4,610.3,472.3,614.6,452,614.6z"/>
			<path class="st2" d="M582.8,610.2V377.1H646v233.1H582.8z M646.1,481.8l-24.6-16.9c2.9-28.6,11.3-51.2,25.1-67.8
				c1-1.2,25.6-24.7,59.9-24.9c16.6-0.1,31,5.1,31,5.1c5.7,1.7,11.9,4.1,18.4,7.6c1.8,0.9,3.5,1.9,5.1,2.9c-2,1.7-4.6,4.1-7.6,7
				c-4.3,4.1-9.4,9.3-13,13.8c-9.6,12.3-15.2,24.2-18.5,33.1c-1.5-1.8-4-4.4-7.7-6.5c-1.6-1-3.3-1.8-5.1-2.4
				c-5-1.8-10.7-2.7-17.1-2.7c-13.5,0-24.5,4.2-33.1,12.6C650.3,451.1,646.1,464.1,646.1,481.8z"/>
			<path class="st2" d="M865,615.5c-24.5,0-46.3-5.3-65.4-15.9c-19.1-10.6-34.2-25.1-45.1-43.4c-10.9-18.3-16.4-39.3-16.4-62.8
				c0-23.2,5.4-43.9,16.2-62.3c10.8-18.3,25.5-32.8,44.2-43.4s39.6-15.9,62.8-15.9c21.9,0,41.5,5,58.9,15s30.9,23.8,40.5,41.5
				c9.7,17.7,14.5,37.8,14.5,60.3c0,4.2-0.2,8.4-0.5,12.8c-0.3,4.3-1.1,9.1-2.4,14.2l-196.5,0.5v-47.3l167-0.5l-26.1,19.8
				c-0.3-13.8-2.7-25.4-7.2-34.8c-4.5-9.3-10.8-16.4-18.8-21.2c-8-4.8-18-7.2-29.9-7.2c-12.5,0-23.5,2.7-32.8,8.2
				s-16.5,13.3-21.5,23.4s-7.5,22.1-7.5,36c0,14.2,2.7,26.5,8,36.9c5.3,10.5,13,18.4,22.9,23.9c10,5.5,21.6,8.2,34.8,8.2
				c11.9,0,22.7-1.9,32.3-5.8c9.7-3.9,18-10,25.1-18.3l37.7,37.6c-11.9,13.5-25.9,23.7-42,30.4C901.5,612.2,884,615.5,865,615.5z"/>
		</g>
		
			<linearGradient id="SVGID_1_" gradientUnits="userSpaceOnUse" x1="223.1596" y1="397.2697" x2="975.085" y2="397.2697" gradientTransform="matrix(1 0 0 -1 0 1078.5197)">
			<stop  offset="0" style="stop-color:#72FECF"/>
			<stop  offset="0.5" style="stop-color:#73BBF1"/>
			<stop  offset="1" style="stop-color:#FE9AEB"/>
		</linearGradient>
		<path class="st3" d="M223.5,708.2c237.1,0,474.2,0,711.3,0c4.6-0.8,16.8-3.7,27-14.5c14.9-15.9,13.4-36.2,13.1-39.4
			c-237.9,0-475.8,0-713.8,0c-5.1,0.7-13.6,2.6-21.5,9C220.2,678.8,223.2,706.1,223.5,708.2z"/>
	</g>
</g>
</svg>
